<?xml version="1.0" standalone="no"?>
<!DOCTYPE svg PUBLIC "-//W3C//DTD SVG 20010904//EN"
 "http://www.w3.org/TR/2001/REC-SVG-20010904/DTD/svg10.dtd">
<svg version="1.0" xmlns="http://www.w3.org/2000/svg"
 width="922.000000pt" height="922.000000pt" viewBox="0 0 922.000000 922.000000"
 preserveAspectRatio="xMidYMid meet">
<metadata>
Created by potrace 1.14, written by Peter Selinger 2001-2017
</metadata>
<g transform="translate(0.000000,922.000000) scale(0.100000,-0.100000)"
fill="#000000" stroke="none">
<path d="M3448 7115 c-1 -2 -129 -6 -284 -9 -154 -4 -320 -8 -370 -11 -49 -2
-163 -7 -254 -10 -91 -3 -187 -8 -215 -10 -27 -2 -90 -7 -140 -10 -264 -16
-472 -74 -763 -213 -320 -151 -640 -403 -868 -682 -185 -227 -358 -542 -430
-785 -9 -33 -19 -64 -20 -70 -58 -187 -98 -478 -97 -705 0 -87 10 -265 17
-310 3 -14 10 -59 16 -100 15 -103 65 -304 101 -408 261 -749 870 -1325 1635
-1547 89 -26 228 -59 294 -70 19 -3 46 -7 60 -10 65 -12 97 -17 115 -19 98
-11 165 -19 190 -22 152 -19 822 -25 1300 -12 127 4 313 7 415 7 l185 1 0
1835 0 1835 -35 0 c-19 1 -495 3 -1056 5 l-1022 4 -3 -22 c-2 -12 -4 -177 -4
-367 l0 -345 695 -1 c382 -1 700 -2 707 -3 8 -1 11 -278 10 -1118 l-2 -1116
-230 -4 c-693 -13 -977 -7 -1135 23 -14 2 -41 7 -60 10 -65 10 -228 54 -307
83 -254 94 -468 235 -683 450 -267 268 -431 603 -486 996 -5 33 -9 148 -8 255
0 161 4 214 22 305 24 116 64 257 89 315 194 443 434 714 801 904 138 71 372
151 500 171 20 3 44 7 52 10 32 9 230 35 320 42 52 3 300 5 550 3 577 -5 2545
-5 3130 0 401 3 542 0 665 -15 100 -12 195 -28 255 -42 36 -8 73 -17 84 -19
80 -16 239 -71 344 -119 72 -34 223 -117 246 -137 6 -4 33 -25 61 -46 185
-137 352 -340 475 -574 50 -96 130 -290 130 -317 0 -9 7 -34 14 -56 8 -22 17
-61 21 -85 4 -25 8 -47 10 -50 19 -31 28 -431 12 -540 -41 -286 -152 -573
-305 -790 -36 -52 -121 -149 -187 -216 -295 -297 -633 -474 -1020 -534 -38 -6
-80 -13 -92 -15 -74 -12 -253 -19 -503 -18 -234 1 -730 8 -777 12 -12 1 -11
696 2 1756 2 182 4 364 4 406 l1 75 623 0 622 0 3 367 2 367 -777 0 c-428 0
-874 2 -990 3 -135 1 -214 -2 -216 -8 -4 -16 -1 -3665 4 -3669 7 -6 795 -19
1229 -20 366 -1 590 5 670 18 14 3 54 7 90 10 396 37 852 183 1161 372 498
305 869 773 1051 1329 29 89 72 258 83 325 3 19 7 46 10 60 7 38 14 98 21 170
6 73 7 379 0 425 -2 17 -7 62 -11 100 -21 206 -89 467 -177 675 -279 660 -876
1190 -1585 1405 -174 53 -254 64 -548 80 -60 3 -141 8 -180 10 -38 2 -169 7
-290 11 -121 3 -263 8 -315 11 -115 5 -2647 13 -2652 8z"/>
<path d="M5769 4608 c-1 -2 -3 -162 -4 -355 l-1 -353 351 0 351 0 0 355 0 355
-348 0 c-191 0 -349 -1 -349 -2z"/>
</g>
</svg>
